<?xml version="1.0" encoding="UTF-8" standalone="no"?>
<svg
   version="1.0"
   width="1000"
   height="1000"
   viewBox="0 0 750 750"
   preserveAspectRatio="xMidYMid"
   id="svg7"
   sodipodi:docname="gradle.svg"
   inkscape:version="1.3.2 (091e20ef0f, 2023-11-25, custom)"
   xmlns:inkscape="http://www.inkscape.org/namespaces/inkscape"
   xmlns:sodipodi="http://sodipodi.sourceforge.net/DTD/sodipodi-0.dtd"
   xmlns="http://www.w3.org/2000/svg"
   xmlns:svg="http://www.w3.org/2000/svg">
  <defs
     id="defs7" />
  <sodipodi:namedview
     id="namedview7"
     pagecolor="#ffffff"
     bordercolor="#000000"
     borderopacity="0.25"
     inkscape:showpageshadow="2"
     inkscape:pageopacity="0.0"
     inkscape:pagecheckerboard="0"
     inkscape:deskcolor="#d1d1d1"
     inkscape:document-units="px"
     inkscape:zoom="0.5145897"
     inkscape:cx="521.77492"
     inkscape:cy="418.78024"
     inkscape:window-width="1459"
     inkscape:window-height="1008"
     inkscape:window-x="546"
     inkscape:window-y="32"
     inkscape:window-maximized="1"
     inkscape:current-layer="svg7" />
  <g
     id="g1"
     transform="matrix(1.0210321,0,0,1.0210321,-7.8870364,-7.8870355)">
    <g
       transform="matrix(0.27445093,0,0,-0.27445093,-231.58435,870.09121)"
       fill="#000000"
       stroke="none"
       id="g7">
      <g
         id="g2">
        <g
           id="g3">
          <path
             id="path1"
             d="m 3078.999,2758.2568 c -36.4999,0.75 -72.4932,-2.2578 -102.9931,-9.2578 -80,-19 -196.0108,-96.0049 -196.0108,-130.0049 0,-16.9999 72.0039,-88.9892 89.0039,-88.9892 9,0 37.9952,10.9902 64.9951,24.9902 156.9999,79.9999 337.002,-33.9923 337.002,-211.9922 0,-158.9998 -151.9963,-265.997 -315.9961,-221.997 -22,6 -137.0001,56.9942 -255,113.9941 -340.9997,163.9998 -464.9953,199.0029 -694.9951,198.0029 -142.9999,-1 -235.0099,-15.999 -380.0098,-63.999 C 1426.9953,2303.004 1380,2266.0067 1380,2177.0068 c 0,-38.9999 12.9952,-68.004 94.9951,-209.0039 52,-89.9999 106.0039,-175.0019 119.0039,-187.0019 39,-37 101.0069,-39.0058 167.0069,-6.0059 65.9999,34 172.9883,106.0089 257.9882,174.0088 51,41 67.0059,49.001 81.0059,41.001 50.9999,-27 31.996,-55.0021 -104.0039,-157.002 -138.9999,-103.9999 -251.9893,-163.0078 -313.9893,-163.0078 -58.9999,0 -119.002,27.001 -157.0019,71.001 -17,19 -64.9991,96.002 -108.999,172.0019 -43,75 -81.0049,137.0069 -85.0049,137.0069 -12,0 -119.9942,-95.0098 -158.9942,-140.0098 -206.99976,-240.9997 -295.01261,-569.9974 -248.01266,-926.99705 6.99999,-56.99995 19.00098,-109.99318 26.00098,-117.99317 9.99999,-10.99999 36.00203,-15 112.00198,-15 108.9999,0 138.0029,8.9932 138.0029,42.99317 0,39.99996 47,123.00495 90,160.00485 126.9999,107.9999 311.005,80.9999 400.0049,-59.99997 15,-23.99998 30.9951,-60.00588 34.9951,-81.00586 11,-58.99994 17.0011,-61.99219 131.001,-61.99219 107.9999,0 134.0039,9.99907 134.0039,48.99903 0,32.99996 30.002,89.99711 67.0019,131.99709 143.9999,158.9998 396.9952,92.992 454.9952,-118.00784 4.9999,-20.99997 14.9951,-43.99512 19.9951,-49.99511 14,-17.99999 211.9961,-17.99999 225.9961,0 5,5.99999 13.0068,50.002 17.0068,97.00195 20,242.9998 87.9933,432.9991 192.9932,543.999 19.9999,21 69.0068,62.9991 107.0068,93.999 270.9997,216.9998 412.9971,429.9993 431.9971,648.9991 19,226.9997 -122.0022,446.003 -322.002,498.0029 -32.5,8 -69.4961,12.5068 -105.9961,13.2568 z m -432.6416,-729.3457 c 13.0781,1.0313 26.3926,-0.4072 38.6426,-4.9072 29,-11 45.999,-58.003 33.999,-93.0029 -6,-17 -17.0049,-30.9961 -25.0049,-30.9961 -25.9999,0 -123.999,53.9941 -123.999,68.9941 0,31.5 37.128,56.8184 76.3623,59.9121 z" />
        </g>
      </g>
    </g>
  </g>
</svg>
