<?xml version="1.0" encoding="UTF-8" standalone="no"?>
<!-- Created with Inkscape (http://www.inkscape.org/) -->

<svg
   width="1000"
   height="1000"
   viewBox="0 0 264.58333 264.58334"
   version="1.1"
   id="svg1769"
   sodipodi:docname="meson.svg"
   inkscape:version="1.3.2 (091e20ef0f, 2023-11-25, custom)"
   xmlns:inkscape="http://www.inkscape.org/namespaces/inkscape"
   xmlns:sodipodi="http://sodipodi.sourceforge.net/DTD/sodipodi-0.dtd"
   xmlns="http://www.w3.org/2000/svg"
   xmlns:svg="http://www.w3.org/2000/svg"
   xmlns:rdf="http://www.w3.org/1999/02/22-rdf-syntax-ns#"
   xmlns:cc="http://creativecommons.org/ns#"
   xmlns:dc="http://purl.org/dc/elements/1.1/">
  <sodipodi:namedview
     id="namedview1"
     pagecolor="#ffffff"
     bordercolor="#000000"
     borderopacity="0.25"
     inkscape:showpageshadow="2"
     inkscape:pageopacity="0.0"
     inkscape:pagecheckerboard="0"
     inkscape:deskcolor="#d1d1d1"
     inkscape:zoom="0.51493552"
     inkscape:cx="453.45483"
     inkscape:cy="361.21027"
     inkscape:window-width="1835"
     inkscape:window-height="941"
     inkscape:window-x="546"
     inkscape:window-y="32"
     inkscape:window-maximized="1"
     inkscape:current-layer="svg1769" />
  <defs
     id="defs1763">
    <marker
       orient="auto"
       refY="0"
       refX="0"
       id="marker4405"
       style="overflow:visible">
      <path
         id="path4403"
         d="M 0,0 5,-5 -12.5,0 5,5 Z"
         style="fill:#000000;fill-opacity:1;fill-rule:evenodd;stroke:#000000;stroke-width:1pt;stroke-opacity:1"
         transform="matrix(-0.8,0,0,-0.8,-10,0)" />
    </marker>
    <marker
       orient="auto"
       refY="0"
       refX="0"
       id="Arrow1Lstart"
       style="overflow:visible">
      <path
         id="path2389"
         d="M 0,0 5,-5 -12.5,0 5,5 Z"
         style="fill:#000000;fill-opacity:1;fill-rule:evenodd;stroke:#000000;stroke-width:1pt;stroke-opacity:1"
         transform="matrix(0.8,0,0,0.8,10,0)" />
    </marker>
    <marker
       orient="auto"
       refY="0"
       refX="0"
       id="Arrow1Lend"
       style="overflow:visible">
      <path
         id="path2392"
         d="M 0,0 5,-5 -12.5,0 5,5 Z"
         style="fill:#000000;fill-opacity:1;fill-rule:evenodd;stroke:#000000;stroke-width:1pt;stroke-opacity:1"
         transform="matrix(-0.8,0,0,-0.8,-10,0)" />
    </marker>
  </defs>
  <metadata
     id="metadata1766">
    <rdf:RDF>
      <cc:Work
         rdf:about="">
        <dc:format>image/svg+xml</dc:format>
        <dc:type
           rdf:resource="http://purl.org/dc/dcmitype/StillImage" />
      </cc:Work>
    </rdf:RDF>
  </metadata>
  <g
     id="layer1"
     style="fill:#000000;fill-opacity:1"
     transform="matrix(26.565612,0,0,26.565612,1.6202358,3.0065175)">
    <g
       id="g1">
      <path
         style="fill:#000000;fill-opacity:1;stroke:none;stroke-width:0.26417;stroke-miterlimit:4;stroke-dasharray:none;stroke-opacity:1"
         d="M 4.9578365,0 C 1.90949,1.72126 0.01735137,4.946295 0,8.449098 c 3.1894409,1.738918 6.9342687,1.679387 9.8366076,0.01809 3.598e-4,-0.0084 7.647e-4,-0.01645 0.00103,-0.0248 C 9.8336376,4.958381 7.9742143,1.740218 4.958348,8e-6 Z M 6.5995973,3.729488 C 7.051577,4.036632 6.984521,4.776029 6.9117209,5.282366 6.8190829,5.840124 6.2845817,6.757236 5.5898388,7.355623 5.6796988,7.484477 5.7316422,7.643151 5.7309146,7.812444 5.3003952,8.030059 4.8734926,7.784624 4.3568381,7.342187 3.8401836,6.899748 3.2829261,6.013132 3.0980009,5.102016 2.9339804,5.119386 2.7661182,5.082816 2.6220605,4.991944 2.6596865,4.481052 3.2019054,4.177342 3.6824602,3.998206 4.1630176,3.819075 5.4011485,3.7587 6.2740354,4.069006 6.3420944,3.926105 6.4547458,3.806128 6.5995973,3.730008 Z"
         id="path817-6-2-9-7-9-93-9-8-1-2" />
    </g>
  </g>
</svg>
