<?xml version="1.0" encoding="UTF-8" standalone="no"?>
<!-- Generator: Adobe Illustrator 21.0.0, SVG Export Plug-In . SVG Version: 6.00 Build 0)  -->

<svg
   version="1.1"
   id="Layer_1"
   x="0px"
   y="0px"
   viewBox="0 0 1000 1000"
   xml:space="preserve"
   sodipodi:docname="crystal.svg"
   width="1000"
   height="1000"
   inkscape:version="1.3.2 (091e20ef0f, 2023-11-25, custom)"
   xmlns:inkscape="http://www.inkscape.org/namespaces/inkscape"
   xmlns:sodipodi="http://sodipodi.sourceforge.net/DTD/sodipodi-0.dtd"
   xmlns="http://www.w3.org/2000/svg"
   xmlns:svg="http://www.w3.org/2000/svg"><defs
   id="defs2" /><sodipodi:namedview
   id="namedview2"
   pagecolor="#ffffff"
   bordercolor="#000000"
   borderopacity="0.25"
   inkscape:showpageshadow="2"
   inkscape:pageopacity="0.0"
   inkscape:pagecheckerboard="0"
   inkscape:deskcolor="#d1d1d1"
   inkscape:zoom="0.18665891"
   inkscape:cx="18.75078"
   inkscape:cy="1213.4433"
   inkscape:window-width="1459"
   inkscape:window-height="1008"
   inkscape:window-x="546"
   inkscape:window-y="32"
   inkscape:window-maximized="1"
   inkscape:current-layer="Layer_1" />
<style
   type="text/css"
   id="style1">
	.st0{fill:none;}
</style>
<g
   id="g2"
   transform="matrix(5.8494316,0,0,5.8494316,-65.055084,-104.53875)">
	<path
   d="m 165.4,122 -50,49.9 c -0.2,0.2 -0.5,0.3 -0.7,0.2 L 46.4,153.8 c -0.3,-0.1 -0.5,-0.3 -0.5,-0.5 L 27.5,85.1 c -0.1,-0.3 0,-0.5 0.2,-0.7 l 50,-49.9 c 0.2,-0.2 0.5,-0.3 0.7,-0.2 l 68.3,18.3 c 0.3,0.1 0.5,0.3 0.5,0.5 l 18.3,68.2 c 0.2,0.3 0.1,0.5 -0.1,0.7 z M 98.4,67.7 31.3,85.6 c -0.1,0 -0.2,0.2 -0.1,0.3 l 49.1,49 c 0.1,0.1 0.3,0.1 0.3,-0.1 l 18,-67 c 0.1,0 -0.1,-0.2 -0.2,-0.1 z"
   id="path1" />
	<g
   id="g1">
		<rect
   class="st0"
   width="193.2"
   height="206.7"
   id="rect1"
   x="0"
   y="0" />
	</g>
</g>
</svg>
