<?xml version="1.0" encoding="UTF-8" standalone="no"?>
<!-- Created with Inkscape (http://www.inkscape.org/) -->

<svg
   version="1.0"
   width="1000"
   height="1000"
   id="svg2"
   sodipodi:docname="d.svg"
   inkscape:version="1.3.2 (091e20ef0f, 2023-11-25, custom)"
   xmlns:inkscape="http://www.inkscape.org/namespaces/inkscape"
   xmlns:sodipodi="http://sodipodi.sourceforge.net/DTD/sodipodi-0.dtd"
   xmlns:xlink="http://www.w3.org/1999/xlink"
   xmlns="http://www.w3.org/2000/svg"
   xmlns:svg="http://www.w3.org/2000/svg"
   xmlns:rdf="http://www.w3.org/1999/02/22-rdf-syntax-ns#"
   xmlns:cc="http://creativecommons.org/ns#"
   xmlns:dc="http://purl.org/dc/elements/1.1/">
  <sodipodi:namedview
     id="namedview1"
     pagecolor="#ffffff"
     bordercolor="#000000"
     borderopacity="0.25"
     inkscape:showpageshadow="2"
     inkscape:pageopacity="0.0"
     inkscape:pagecheckerboard="0"
     inkscape:deskcolor="#d1d1d1"
     inkscape:zoom="0.76258683"
     inkscape:cx="481.25667"
     inkscape:cy="527.80875"
     inkscape:window-width="1920"
     inkscape:window-height="1010"
     inkscape:window-x="0"
     inkscape:window-y="0"
     inkscape:window-maximized="1"
     inkscape:current-layer="layer1" />
  <defs
     id="defs4">
    <linearGradient
       id="linearGradient3482">
      <stop
         id="stop3484"
         style="stop-color:#000000;stop-opacity:0.19791667"
         offset="0" />
      <stop
         id="stop3486"
         style="stop-color:#000000;stop-opacity:0.82291669"
         offset="1" />
    </linearGradient>
    <linearGradient
       id="linearGradient3456">
      <stop
         id="stop3458"
         style="stop-color:#ffffff;stop-opacity:1"
         offset="0" />
      <stop
         id="stop3460"
         style="stop-color:#ffffff;stop-opacity:0.33333334"
         offset="1" />
    </linearGradient>
    <linearGradient
       id="linearGradient3420">
      <stop
         id="stop3430"
         style="stop-color:#f2f2f0;stop-opacity:0.13541667"
         offset="0" />
      <stop
         id="stop3424"
         style="stop-color:#eeeeec;stop-opacity:0.39583334"
         offset="1" />
    </linearGradient>
    <linearGradient
       id="linearGradient3360">
      <stop
         id="stop3362"
         style="stop-color:#eeeeec;stop-opacity:1"
         offset="0" />
      <stop
         id="stop3364"
         style="stop-color:#eeeeec;stop-opacity:0"
         offset="1" />
    </linearGradient>
    <linearGradient
       id="linearGradient3307">
      <stop
         id="stop3309"
         style="stop-color:#a5d8ff;stop-opacity:1"
         offset="0" />
      <stop
         id="stop3311"
         style="stop-color:#003845;stop-opacity:1"
         offset="1" />
    </linearGradient>
    <linearGradient
       id="linearGradient3299">
      <stop
         id="stop3301"
         style="stop-color:#ffffff;stop-opacity:1"
         offset="0" />
      <stop
         id="stop3303"
         style="stop-color:#979797;stop-opacity:0.57291669"
         offset="1" />
    </linearGradient>
    <linearGradient
       x1="27.247862"
       y1="33.562527"
       x2="44.49588"
       y2="47.030663"
       id="linearGradient3426"
       xlink:href="#linearGradient3420"
       gradientUnits="userSpaceOnUse"
       gradientTransform="matrix(1,0,0,0.991763,-0.677924,0.501242)"
       spreadMethod="reflect" />
    <linearGradient
       x1="24.48222"
       y1="30.993589"
       x2="104.02448"
       y2="90.718597"
       id="linearGradient3462"
       xlink:href="#linearGradient3456"
       gradientUnits="userSpaceOnUse"
       gradientTransform="matrix(0.99719,0,0,0.988716,-0.49737,0.686728)" />
    <linearGradient
       x1="49.344894"
       y1="57.756798"
       x2="79.688202"
       y2="83.106018"
       id="linearGradient3488"
       xlink:href="#linearGradient3482"
       gradientUnits="userSpaceOnUse" />
    <linearGradient
       x1="27.247862"
       y1="33.562527"
       x2="44.49588"
       y2="47.030663"
       id="linearGradient2213"
       xlink:href="#linearGradient3420"
       gradientUnits="userSpaceOnUse"
       gradientTransform="matrix(1,0,0,-0.991763,-0.677924,121.0142)"
       spreadMethod="reflect" />
    <linearGradient
       x1="27.247862"
       y1="33.562527"
       x2="44.49588"
       y2="47.030663"
       id="linearGradient2232"
       xlink:href="#linearGradient3420"
       gradientUnits="userSpaceOnUse"
       gradientTransform="matrix(1,0,0,-0.991763,-0.677924,121.0142)"
       spreadMethod="reflect" />
  </defs>
  <metadata
     id="metadata7">
    <rdf:RDF>
      <cc:Work
         rdf:about="">
        <dc:format>image/svg+xml</dc:format>
        <dc:type
           rdf:resource="http://purl.org/dc/dcmitype/StillImage" />
      </cc:Work>
    </rdf:RDF>
  </metadata>
  <g
     transform="translate(-2.9819053,-15.753182)"
     id="layer1">
    <g
       transform="matrix(14.611254,0,0,14.611254,-429.21977,-365.05371)"
       id="g2225"
       style="display:inline">
      <g
         id="g1">
        <path
           id="path2242"
           style="font-style:normal;font-variant:normal;font-weight:normal;font-stretch:normal;font-size:64px;line-height:125%;font-family:'Gill Sans MT';text-align:start;writing-mode:lr-tb;text-anchor:start;fill:#000000;fill-opacity:1;stroke:none"
           d="M 92.975509 38.016785 A 3.7399233 3.4282631 0 0 0 89.235616 41.445622 A 3.7399233 3.4282631 0 1 0 96.715403 41.445622 A 3.7399233 3.4282631 0 0 0 92.975509 38.016785 z M 49.072734 39.163563 L 32.540502 39.187758 C 32.469432 39.188153 32.401991 39.179522 32.333309 39.188025 C 31.522888 39.288216 30.887791 39.935117 30.8851 40.718042 L 30.936296 80.694585 C 30.932996 80.751605 30.933007 80.811617 30.93643 80.868627 C 30.92713 80.963527 30.927284 81.04457 30.936831 81.139448 C 30.936749 81.148948 30.936724 81.168569 30.936831 81.178079 C 30.945531 81.216449 30.966623 81.256464 30.978403 81.294107 C 30.978322 81.303607 30.978297 81.303816 30.978403 81.313356 C 30.987103 81.351736 30.98762 81.391743 30.99939 81.429384 C 30.999307 81.438884 30.999284 81.458639 30.99939 81.468149 C 31.01812 81.506929 31.039591 81.546832 31.061681 81.584043 C 31.061601 81.593543 31.061575 81.593885 31.061681 81.603425 C 31.090401 81.642715 31.132937 81.682668 31.165411 81.71932 C 31.165329 81.72882 31.165305 81.729028 31.165411 81.738568 C 31.184141 81.777348 31.205613 81.817394 31.227703 81.854596 C 31.227621 81.864096 31.22773 81.883718 31.227836 81.893228 C 31.267186 81.923438 31.30998 81.943657 31.352152 81.970357 C 31.352069 81.979857 31.352179 81.999612 31.352285 82.009122 C 31.381675 82.038712 31.403383 82.059035 31.435163 82.086385 C 31.445233 82.095985 31.466405 82.115646 31.476735 82.125016 C 31.506125 82.154606 31.527832 82.174795 31.559612 82.202145 C 31.569792 82.202216 31.570141 82.202248 31.580331 82.202145 C 31.656081 82.265995 31.742203 82.32614 31.829229 82.37592 C 31.839419 82.37599 31.860488 82.37589 31.870668 82.375786 C 31.910578 82.396306 31.953387 82.416286 31.994984 82.433666 C 32.005164 82.433736 32.005513 82.433766 32.015703 82.433666 C 32.055623 82.454186 32.098566 82.474033 32.140152 82.491413 C 32.200662 82.504023 32.264974 82.504318 32.326625 82.510528 C 32.427348 82.528698 32.534822 82.548248 32.637414 82.548758 L 32.803168 82.548491 L 48.112964 82.487403 C 52.489191 82.479603 55.420345 82.404791 57.165944 82.184099 C 57.176134 82.18417 57.197203 82.184203 57.207383 82.184099 C 58.877897 81.952064 60.647492 81.5245 62.571532 80.899773 C 65.916284 79.853992 68.882215 78.308756 71.432425 76.245024 C 73.929331 74.245766 75.864225 71.878853 77.224193 69.216115 C 78.115441 67.470996 78.711145 65.659152 79.018481 63.796758 A 11.639528 10.669567 0 0 0 91.351654 53.170585 A 11.639528 10.669567 0 0 0 71.722361 45.442034 C 69.926048 43.952892 67.880496 42.71126 65.587454 41.750396 C 61.376046 39.964953 55.885012 39.151392 49.072734 39.163563 z M 48.35812 47.40368 C 51.688728 47.39778 54.058212 47.49888 55.402267 47.683457 C 56.764754 47.870632 58.256986 48.265648 59.837258 48.876084 C 61.403506 49.472864 62.768849 50.2037 63.942078 51.113497 C 63.941998 51.122997 63.942106 51.142752 63.942212 51.152262 C 67.169877 53.623074 68.691434 56.593093 68.698418 60.525388 C 68.705518 64.5518 67.235064 67.688119 64.090989 70.31838 C 63.123813 71.116692 62.048301 71.793567 60.861725 72.353813 C 59.740228 72.876112 58.277367 73.326219 56.430076 73.714066 C 54.687885 74.062567 52.042879 74.260911 48.599666 74.26707 L 41.26585 74.277763 L 41.231496 47.413972 L 48.35812 47.40368 z " />
      </g>
      <g
         id="g2" />
    </g>
  </g>
</svg>
