<?xml version="1.0" encoding="UTF-8" standalone="no"?>
<svg
   version="1.1"
   viewBox="0 0 1000 1000"
   id="svg2"
   sodipodi:docname="Lisp_logo.svg"
   inkscape:version="1.3 (0e150ed6c4, 2023-07-21)"
   width="1000"
   height="1000"
   xmlns:inkscape="http://www.inkscape.org/namespaces/inkscape"
   xmlns:sodipodi="http://sodipodi.sourceforge.net/DTD/sodipodi-0.dtd"
   xmlns="http://www.w3.org/2000/svg"
   xmlns:svg="http://www.w3.org/2000/svg">
  <defs
     id="defs2" />
  <sodipodi:namedview
     id="namedview2"
     pagecolor="#ffffff"
     bordercolor="#000000"
     borderopacity="0.25"
     inkscape:showpageshadow="2"
     inkscape:pageopacity="0.0"
     inkscape:pagecheckerboard="0"
     inkscape:deskcolor="#d1d1d1"
     inkscape:zoom="0.45898438"
     inkscape:cx="552.30638"
     inkscape:cy="492.39149"
     inkscape:window-width="1980"
     inkscape:window-height="875"
     inkscape:window-x="349"
     inkscape:window-y="74"
     inkscape:window-maximized="1"
     inkscape:current-layer="svg2" />
  <path
     stroke="#000000"
     stroke-width="10.0359"
     d="M 499.10847,26.327584 C 373.91303,26.562222 253.89208,76.350363 165.31551,164.8065 -19.818147,349.64912 -20.052986,649.57906 164.79023,834.70067 349.63084,1019.8343 649.56278,1020.0691 834.6844,835.22655 1019.8181,650.38393 1020.0529,350.454 835.21028,165.33238 746.13794,76.119538 625.17964,26.092745 499.10907,26.327584 Z m 4.57836,2.019016 c 120.29794,0.972676 239.63645,47.788794 330.09976,138.40064 184.05981,184.34885 183.82701,483.00624 -0.51986,667.06405 -92.17342,92.03092 -241.50312,91.9145 -333.53202,-0.25892 -92.03092,-92.17343 -91.9145,-241.50312 0.25892,-333.53203 93.15694,-93.01041 93.27536,-243.9318 0.26093,-337.08472 C 425.82054,88.387182 310.66297,69.495664 217.92553,119.46425 303.06181,56.155989 404.0126,27.539716 503.68683,28.3466 Z m -383.049,261.45443 h 80.28694 c 19.95733,84.59634 50.58881,159.40571 81.79233,233.69521 31.91405,-82.94845 66.64418,-163.08084 110.89633,-233.69521 h 80.28695 C 375.69339,485.22747 268.78731,619.09792 425.72821,791.59441 H 345.44127 C 249.96605,636.55431 179.97189,495.1951 120.63783,289.80103 Z"
     id="path1"
     style="fill:#000000;fill-opacity:1" />
  <path
     d="m 574.25704,208.40231 c 156.94893,172.48847 50.03483,306.37497 -48.17216,501.79339 h 80.28694 c 44.25216,-70.61036 78.98228,-150.74275 110.89634,-233.69522 31.20352,74.28549 61.83499,149.09687 81.79232,233.69522 h 80.28694 C 820.01337,504.80163 750.01921,363.4364 654.54399,208.40231 Z"
     id="path2"
     style="fill:#000000;fill-opacity:1;stroke-width:2.00717" />
</svg>
