<?xml version="1.0" encoding="UTF-8" standalone="no"?>
<svg
   width="1000"
   height="1000"
   viewBox="0 0 1000 1000"
   version="1.1"
   xml:space="preserve"
   style="clip-rule:evenodd;fill-rule:evenodd;stroke-linejoin:round;stroke-miterlimit:2"
   id="svg8"
   sodipodi:docname="odin.svg"
   inkscape:version="1.3.2 (091e20ef0f, 2023-11-25, custom)"
   xmlns:inkscape="http://www.inkscape.org/namespaces/inkscape"
   xmlns:sodipodi="http://sodipodi.sourceforge.net/DTD/sodipodi-0.dtd"
   xmlns="http://www.w3.org/2000/svg"
   xmlns:svg="http://www.w3.org/2000/svg"><sodipodi:namedview
   id="namedview8"
   pagecolor="#ffffff"
   bordercolor="#000000"
   borderopacity="0.25"
   inkscape:showpageshadow="2"
   inkscape:pageopacity="0.0"
   inkscape:pagecheckerboard="0"
   inkscape:deskcolor="#d1d1d1"
   showgrid="false"
   inkscape:zoom="0.265505"
   inkscape:cx="734.44945"
   inkscape:cy="386.05676"
   inkscape:window-width="2540"
   inkscape:window-height="1024"
   inkscape:window-x="6"
   inkscape:window-y="42"
   inkscape:window-maximized="1"
   inkscape:current-layer="svg8" />
    
    <g
   transform="matrix(1.0898103,0,0,1.0898103,-237.16227,-851.53641)"
   id="g2"
   style="fill:#000000;fill-opacity:1">
        <path
   d="m 430.516,1595.76 c -16.576,-11.38 -29.677,-22.4 -29.677,-22.4 L 827.125,835.012 c 0,0 17.547,6.508 32.041,13.457 18.27,8.757 33.403,17.294 33.403,17.294 206.631,119.3 277.541,383.917 158.241,590.547 -119.303,206.64 -383.92,277.54 -590.554,158.24 0,0 -14.473,-8.32 -29.74,-18.79 z M 856.543,928.162 496.282,1552.15 c 172.195,99.42 392.709,40.33 492.126,-131.86 99.412,-172.2 40.332,-392.71 -131.865,-492.128 z M 321.659,1487.36 c -14.487,-20.98 -19.644,-31.04 -19.644,-31.04 -74.475,-129.36 -79.937,-293.86 0.003,-432.32 79.94,-138.46 225.128,-215.977 374.397,-216.161 0,0 20.153,-0.052 36.933,1.555 25.28,2.422 42.087,5.684 42.087,5.684 L 347.771,1521.17 c 0,0 -9.671,-10.01 -26.112,-33.81 z M 633.291,882.532 c -108.638,13.203 -209.994,75.512 -268.874,177.498 -58.88,101.98 -62.162,220.91 -19.278,321.6 z"
   style="fill:#000000;fill-opacity:1"
   id="path2" />
    </g>
    <g
   transform="matrix(0.869533,0,0,0.869533,-448.385,-548.2)"
   id="g3">
        
    </g>
    
    
    <defs
   id="defs8">
        <radialGradient
   id="_Radial1"
   cx="0"
   cy="0"
   r="1"
   gradientUnits="userSpaceOnUse"
   gradientTransform="scale(3507.87,2480.31)"><stop
     offset="0"
     style="stop-color:rgb(24,156,255);stop-opacity:1"
     id="stop5" /><stop
     offset="0.58"
     style="stop-color:rgb(19,142,235);stop-opacity:1"
     id="stop6" /><stop
     offset="0.8"
     style="stop-color:rgb(9,113,191);stop-opacity:1"
     id="stop7" /><stop
     offset="1"
     style="stop-color:rgb(0,84,147);stop-opacity:1"
     id="stop8" /></radialGradient>
    </defs>
</svg>
