<?xml version="1.0" encoding="UTF-8" standalone="no"?>
<svg
   role="img"
   focusable="false"
   aria-hidden="true"
   viewBox="0 0 14 14"
   version="1.1"
   id="svg4"
   sodipodi:docname="pkgbuild.svg"
   inkscape:version="1.3 (0e150ed6c4, 2023-07-21)"
   xmlns:inkscape="http://www.inkscape.org/namespaces/inkscape"
   xmlns:sodipodi="http://sodipodi.sourceforge.net/DTD/sodipodi-0.dtd"
   xmlns="http://www.w3.org/2000/svg"
   xmlns:svg="http://www.w3.org/2000/svg">
  <defs
     id="defs8" />
  <sodipodi:namedview
     id="namedview6"
     pagecolor="#ffffff"
     bordercolor="#000000"
     borderopacity="0.25"
     inkscape:showpageshadow="2"
     inkscape:pageopacity="0.0"
     inkscape:pagecheckerboard="0"
     inkscape:deskcolor="#d1d1d1"
     showgrid="false"
     inkscape:zoom="40.557625"
     inkscape:cx="7.3968828"
     inkscape:cy="6.4229599"
     inkscape:window-width="1263"
     inkscape:window-height="1024"
     inkscape:window-x="1283"
     inkscape:window-y="42"
     inkscape:window-maximized="1"
     inkscape:current-layer="svg4" />
  <path
     d="M 6.9999403,0.52631047 C 6.423607,1.9393285 6.0755908,2.8648433 5.433916,4.235847 5.8273453,4.6528839 6.3102306,5.1362331 7.0944782,5.6847295 6.2513306,5.3377814 5.676702,4.9919016 5.2469011,4.6304416 4.4256778,6.3440343 3.1371709,8.782392 0.526224,13.473744 2.5779713,12.289226 4.1694697,11.559714 5.6517673,11.280901 5.588217,11.007203 5.5527195,10.710178 5.555201,10.401296 l 0.00216,-0.06377 c 0.032582,-1.3147326 0.7167894,-2.3272434 1.5269751,-2.2586004 0.8101748,0.068622 1.4403371,1.1925449 1.4077743,2.5072804 -0.00648,0.247254 -0.033447,0.484288 -0.082216,0.704913 1.4658651,0.287121 3.0404236,1.014389 5.0638816,2.18257 C 13.074618,12.738804 12.716567,12.078226 12.376329,11.447308 11.840392,11.031921 11.282649,10.491215 10.14238,9.9059481 10.926142,10.1096 11.488837,10.344133 11.926244,10.606761 8.4669169,4.1660819 8.186346,3.3101271 7.0000591,0.5262565 Z"
     id="path2"
     style="fill:#000000;fill-opacity:1;stroke-width:1.07895" />
</svg>
