<?xml version="1.0" encoding="UTF-8" standalone="no"?>
<!-- Generator: Adobe Illustrator 17.1.0, SVG Export Plug-In . SVG Version: 6.00 Build 0)  -->

<svg
   version="1.1"
   id="Layer_1"
   x="0px"
   y="0px"
   viewBox="0 0 1000 799.99999"
   enable-background="new 0 0 547.8 410.6"
   xml:space="preserve"
   sodipodi:docname="sass.svg"
   inkscape:version="1.3 (0e150ed6c4, 2023-07-21)"
   width="1000"
   height="800"
   xmlns:inkscape="http://www.inkscape.org/namespaces/inkscape"
   xmlns:sodipodi="http://sodipodi.sourceforge.net/DTD/sodipodi-0.dtd"
   xmlns="http://www.w3.org/2000/svg"
   xmlns:svg="http://www.w3.org/2000/svg"><defs
   id="defs6" /><sodipodi:namedview
   id="namedview6"
   pagecolor="#ffffff"
   bordercolor="#000000"
   borderopacity="0.25"
   inkscape:showpageshadow="2"
   inkscape:pageopacity="0.0"
   inkscape:pagecheckerboard="0"
   inkscape:deskcolor="#d1d1d1"
   inkscape:zoom="0.40999714"
   inkscape:cx="408.53944"
   inkscape:cy="331.70963"
   inkscape:window-width="1696"
   inkscape:window-height="965"
   inkscape:window-x="447"
   inkscape:window-y="76"
   inkscape:window-maximized="1"
   inkscape:current-layer="Layer_1" />&#10;<path
   fill="#CD6799"
   d="m 846.29114,453.84208 c -33.45817,0.17518 -62.537,8.23316 -86.88614,20.14498 -8.93386,-17.69255 -17.86772,-33.45818 -19.44428,-45.01964 -1.75174,-13.48837 -3.85383,-21.72153 -1.75174,-37.83752 2.10209,-16.11597 11.56146,-39.06372 11.38629,-40.81546 -0.17518,-1.75175 -2.10208,-9.98491 -21.37119,-10.16008 -19.2691,-0.17517 -35.9106,3.67864 -37.83752,8.75868 -1.92691,5.08004 -5.60555,16.6415 -8.05799,28.55332 -3.32829,17.51737 -38.53821,80.05437 -58.68318,112.81185 -6.48143,-12.78767 -12.08698,-23.99879 -13.3132,-32.93266 -1.75174,-13.48836 -3.85382,-21.72153 -1.75174,-37.8375 2.10208,-16.11599 11.56146,-39.06374 11.3863,-40.81548 -0.17518,-1.75173 -2.1021,-9.98489 -21.3712,-10.16007 -19.26911,-0.17518 -35.91061,3.67865 -37.83751,8.75869 -1.92692,5.08003 -4.029,16.99185 -8.058,28.5533 -4.02899,11.56146 -50.80037,115.96499 -63.06252,142.94174 -6.30625,13.83871 -11.73664,24.87466 -15.59047,32.40713 0,0 0,0 0,0 0,0 -0.17516,0.52551 -0.70069,1.40139 -3.32829,6.48142 -5.25521,9.98489 -5.25521,9.98489 0,0 0,0 0,0.17518 -2.6276,4.72969 -5.43038,9.10904 -6.83177,9.10904 -1.05104,0 -2.97795,-12.61252 0.35035,-29.77954 7.00695,-36.26095 23.64844,-92.66688 23.47327,-94.59378 0,-1.05104 3.15313,-10.86077 -10.86077,-15.94081 -13.66354,-5.08004 -18.5684,3.3283 -19.79462,3.3283 -1.22622,0 -2.10209,2.97795 -2.10209,2.97795 0,0 15.24011,-63.41288 -29.07883,-63.41288 -27.67745,0 -65.86531,30.30505 -84.78406,57.63214 -11.91181,6.48143 -37.312,20.32016 -64.46392,35.20992 -10.33525,5.78073 -21.02084,11.56147 -31.00574,16.99185 -0.7007,-0.70069 -1.40139,-1.57656 -2.10209,-2.27726 C 187.28773,454.71796 88.139426,414.25283 92.343606,337.35159 93.920156,309.32379 103.55471,235.75084 282.75739,146.41226 430.25364,73.715185 547.62001,93.860155 567.94016,138.52944 597.01899,202.29267 505.0528,320.71009 352.65169,337.8771 c -58.15766,6.48143 -88.63789,-15.9408 -96.34552,-24.34914 -8.058,-8.75868 -9.28421,-9.28421 -12.26216,-7.53246 -4.90487,2.6276 -1.75174,10.51041 0,15.06493 4.55451,11.91181 23.2981,32.93265 55.00453,43.2679 28.02779,9.10903 96.17036,14.18907 178.67716,-17.69254 C 570.04224,310.90036 642.2138,211.57688 621.01779,128.36937 599.82176,43.935655 459.68281,16.083035 327.07633,63.204755 248.24817,91.232555 162.76341,135.37632 101.27745,192.83329 28.23003,261.15103 16.66856,320.53491 21.398249,345.40957 38.390097,433.69711 160.1358,491.15408 208.83409,533.72129 c -2.45243,1.40139 -4.72968,2.6276 -6.65659,3.67864 -24.34915,12.08699 -117.191194,60.6101 -140.314124,111.93599 -26.27605,58.15766 4.20417,99.84901 24.34915,105.45456 62.536994,17.3422 126.825744,-13.83873 161.334954,-65.33979 34.50921,-51.50106 30.30505,-118.41741 14.36424,-149.0728 -0.17517,-0.35035 -0.35035,-0.7007 -0.70069,-1.05105 6.30626,-3.67864 12.78768,-7.53246 19.09393,-11.21111 12.43734,-7.35729 24.69948,-14.18908 35.20991,-19.79463 -5.9559,16.29116 -10.33525,35.73544 -12.43733,63.76322 -2.62761,32.93266 10.86077,75.67504 28.55331,92.49172 7.88282,7.35729 17.16702,7.53246 23.12292,7.53246 20.6705,0 29.9547,-17.16702 40.28996,-37.48716 12.6125,-24.87467 23.99879,-53.77833 23.99879,-53.77833 0,0 -14.18907,78.12746 24.34915,78.12746 14.01389,0 28.20296,-18.21806 34.50921,-27.50227 0,0.17518 0,0.17518 0,0.17518 0,0 0.35035,-0.52553 1.05104,-1.75174 1.40139,-2.27726 2.27727,-3.67864 2.27727,-3.67864 0,0 0,-0.17518 0,-0.35035 5.60555,-9.80973 18.21805,-32.05679 36.96164,-69.01844 24.17397,-47.64724 47.47207,-107.20629 47.47207,-107.20629 0,0 2.10208,14.53942 9.2842,38.71339 4.20417,14.18906 12.96285,29.77952 19.9698,44.84446 -5.60555,7.88281 -9.10903,12.26215 -9.10903,12.26215 0,0 0,0 0.17518,0.17518 -4.55451,5.9559 -9.45938,12.43733 -14.88977,18.74359 -19.09393,22.77257 -41.86651,48.87345 -45.01964,56.40592 -3.67865,8.93386 -2.80277,15.41528 4.20417,20.6705 5.08004,3.85382 14.18907,4.37933 23.47327,3.85382 17.16703,-1.22622 29.25401,-5.43039 35.20992,-8.058 9.28421,-3.32829 20.14498,-8.40833 30.30504,-15.94079 18.74359,-13.83873 30.12988,-33.63336 29.07884,-59.73424 -0.52552,-14.36424 -5.25522,-28.72848 -11.03595,-42.21686 1.75175,-2.45243 3.32831,-4.90486 5.08004,-7.35729 29.60436,-43.2679 52.55212,-90.73997 52.55212,-90.73997 0,0 2.10208,14.53941 9.2842,38.71338 3.50347,12.26216 10.68559,25.57536 16.99185,38.53821 -27.85262,22.59742 -45.01965,48.87347 -51.15073,66.04049 -11.03594,31.88161 -2.45243,46.24585 13.83873,49.57416 7.3573,1.57655 17.86772,-1.92692 25.57536,-5.25522 9.80972,-3.15313 21.37119,-8.58351 32.40713,-16.6415 18.74358,-13.83872 36.78647,-33.10783 35.73543,-59.2087 -0.52551,-11.91181 -3.67865,-23.64846 -8.05799,-35.03474 23.64845,-9.80973 54.12867,-15.24012 93.01723,-10.6856 83.38269,9.80972 99.84901,61.83631 96.69591,83.73302 -3.1531,21.89671 -20.67054,33.80852 -26.45126,37.48717 -5.78071,3.67865 -7.70762,4.90486 -7.18216,7.53247 0.70072,3.85382 3.5035,3.67865 8.40835,2.97795 6.83174,-1.22622 43.79347,-17.69254 45.36997,-57.98249 2.6276,-51.50106 -46.421,-107.73181 -133.13197,-107.2063 z M 203.05336,670.70712 c -27.67744,30.12987 -66.21565,41.51615 -82.85715,31.8816 -17.86772,-10.33524 -10.86076,-54.82936 23.12292,-86.71097 20.6705,-19.44428 47.2969,-37.48717 64.98945,-48.52312 4.02899,-2.45243 9.98489,-5.9559 17.16701,-10.33524 1.22622,-0.7007 1.92692,-1.05104 1.92692,-1.05104 v 0 c 1.40139,-0.87588 2.80277,-1.75174 4.20416,-2.62761 12.43734,45.54516 0.52553,85.65993 -28.55331,117.36638 z M 404.5031,533.72129 c -9.63455,23.47327 -29.77952,83.55785 -42.04168,80.22955 -10.51042,-2.80278 -16.99185,-48.34794 -2.10208,-93.36758 7.53246,-22.5974 23.47327,-49.57415 32.75748,-60.08457 15.06493,-16.81668 31.70643,-22.42224 35.73543,-15.59046 5.08004,8.93385 -18.39324,74.09846 -24.34915,88.81306 z m 166.23983,79.52885 c -4.02899,2.10208 -7.88281,3.50347 -9.63455,2.45243 -1.22622,-0.70069 1.75174,-3.50347 1.75174,-3.50347 0,0 20.84567,-22.42223 29.07883,-32.58231 4.72969,-5.9559 10.33525,-12.96285 16.29115,-20.84567 0,0.7007 0,1.57657 0,2.27726 0,26.80157 -25.9257,44.84446 -37.48717,52.20176 z m 128.22714,-29.25401 c -2.97794,-2.10208 -2.45243,-9.10903 7.53247,-31.00574 3.85383,-8.58351 12.96285,-22.94775 28.55331,-36.78647 1.75174,5.60556 2.97796,11.03594 2.80278,16.11597 -0.17517,33.80853 -24.34914,46.42104 -38.88856,51.67624 z"
   id="path1"
   style="fill:#000000;fill-opacity:1;stroke-width:1.75174" />&#10;<g
   id="g1">&#10;</g>&#10;<g
   id="g2">&#10;</g>&#10;<g
   id="g3">&#10;</g>&#10;<g
   id="g4">&#10;</g>&#10;<g
   id="g5">&#10;</g>&#10;<g
   id="g6">&#10;</g>&#10;</svg>
