<?xml version="1.0" encoding="UTF-8" standalone="no"?>
<svg
   width="1000"
   height="1000"
   version="1.1"
   id="svg3"
   sodipodi:docname="tex.svg"
   inkscape:version="1.3 (0e150ed6c4, 2023-07-21)"
   xmlns:inkscape="http://www.inkscape.org/namespaces/inkscape"
   xmlns:sodipodi="http://sodipodi.sourceforge.net/DTD/sodipodi-0.dtd"
   xmlns="http://www.w3.org/2000/svg"
   xmlns:svg="http://www.w3.org/2000/svg">
  <defs
     id="defs3" />
  <sodipodi:namedview
     id="namedview3"
     pagecolor="#ffffff"
     bordercolor="#000000"
     borderopacity="0.25"
     inkscape:showpageshadow="2"
     inkscape:pageopacity="0.0"
     inkscape:pagecheckerboard="0"
     inkscape:deskcolor="#d1d1d1"
     inkscape:zoom="0.64657624"
     inkscape:cx="511.15395"
     inkscape:cy="463.98241"
     inkscape:window-width="2060"
     inkscape:window-height="1017"
     inkscape:window-x="210"
     inkscape:window-y="26"
     inkscape:window-maximized="1"
     inkscape:current-layer="svg3" />
  <path
     id="path1"
     style="fill:#000000;fill-opacity:1;stroke-width:0.978323"
     d="m 610.78548,233.81787 v 14.29269 c 32.49985,0 43.13352,1.22415 56.20388,19.59703 l 114.15039,167.65433 -102.93789,150.3789 c -25.39724,36.7751 -63.84566,37.42083 -75.15505,37.42083 v 14.2927 c 9.44289,-0.78576 22.60916,-0.96801 34.92726,-1.03946 -11.75229,74.82288 -25.85484,115.65035 -121.63686,115.65035 h -82.12942 c -23.63626,0 -24.75233,-2.98521 -24.75233,-23.34408 V 563.31774 h 55.82362 c 55.82305,0 61.14517,20.4558 61.14517,70.39912 h 9.50999 V 479.77815 h -9.50999 c 0,49.10197 -5.33191,69.1762 -61.14517,69.1762 H 409.4459 V 402.3053 c 0,-19.97732 1.12587,-22.9619 24.75233,-22.9619 h 80.90652 c 91.57093,0 102.22564,36.39359 110.52182,114.62998 h 10.6641 L 622.09543,363.09405 H 364.29211 L 354.74773,234.65863 H 13.049404 L 3.0617226,365.5303 H 13.69525 C 21.345726,267.51225 29.750535,250.3519 121.51712,250.3519 h 32.66489 c 11.29961,1.77078 11.30039,8.96153 11.30039,22.57977 V 595.054 c 0,21.38611 -1.7916,27.91086 -51.63709,27.91086 H 97.047583 v 14.29459 c 28.390897,-0.54786 57.977027,-1.12545 87.003837,-1.12545 28.93877,0 58.61151,0.57759 86.98283,1.12545 v -14.29459 h -16.51492 c -49.10197,0 -50.87278,-6.52475 -50.87278,-27.91086 V 272.94124 c 0,-13.07039 6.2e-4,-20.16331 10.65453,-22.57977 h 32.47001 c 89.75106,0 99.24049,16.87741 106.84163,112.73258 h -31.14009 v 16.24935 c 41.91131,0 48.62378,-5.2e-4 48.62378,26.60004 v 319.34404 c 0,26.60056 -6.62443,26.60196 -48.62378,26.60196 v 14.29269 h 307.93855 l 18.46203,-129.8284 c 1.34517,-7.4e-4 3.16919,-0.0248 4.40052,-0.0248 15.96622,0 43.78027,3.8e-4 58.52357,1.12545 v -14.29269 c -18.3044,-1.77075 -23.60776,-13.61818 -23.60776,-23.15682 0,-7.65048 2.89561,-11.84764 5.87949,-16.05443 l 94.65273,-138.1403 102.93979,151.30754 c 4.65683,6.54498 4.6566,8.31628 4.6566,10.08705 0,4.6568 -5.30215,14.8413 -26.02301,16.05443 v 14.29269 c 18.9501,-1.12508 47.88976,-1.12545 67.38772,-1.12545 15.32052,0 44.89363,3.6e-4 59.25542,1.12545 v -14.29269 c -37.90021,0 -43.86741,-2.89517 -55.62684,-19.59511 L 811.20407,413.321 898.7544,286.74476 c 8.76576,-12.42469 26.60095,-37.99806 75.15506,-38.64375 v -14.28313 c -13.54976,1.12507 -36.03148,1.12545 -50.22695,1.12545 -19.49795,0 -43.78025,-3.8e-4 -58.52356,-1.12545 v 14.29269 c 18.9501,1.77075 23.60778,13.61817 23.60778,23.15682 0,7.07327 -2.89585,11.84857 -7.09285,17.72826 L 803.55329,402.3053 716.00295,274.15458 c -4.10895,-6.44714 -4.68525,-8.31628 -4.68525,-10.08705 0,-5.33185 6.44633,-15.40889 26.04211,-15.96653 v -14.28313 c -18.95009,1.12507 -47.88785,1.12545 -67.3858,1.12545 -15.32052,0 -44.89523,-3.8e-4 -59.18853,-1.12545 z" />
</svg>
