<?xml version="1.0" encoding="UTF-8" standalone="no"?>
<!-- Created by AtomCrusher for the English Wikipedia -->

<svg
   version="1.1"
   width="612"
   height="612"
   id="svg2"
   sodipodi:docname="webassembly.svg"
   inkscape:version="1.3 (0e150ed6c4, 2023-07-21)"
   xmlns:inkscape="http://www.inkscape.org/namespaces/inkscape"
   xmlns:sodipodi="http://sodipodi.sourceforge.net/DTD/sodipodi-0.dtd"
   xmlns="http://www.w3.org/2000/svg"
   xmlns:svg="http://www.w3.org/2000/svg">
  <defs
     id="defs2" />
  <sodipodi:namedview
     id="namedview2"
     pagecolor="#ffffff"
     bordercolor="#000000"
     borderopacity="0.25"
     inkscape:showpageshadow="2"
     inkscape:pageopacity="0.0"
     inkscape:pagecheckerboard="0"
     inkscape:deskcolor="#d1d1d1"
     inkscape:zoom="0.65522876"
     inkscape:cx="317.44638"
     inkscape:cy="362.46883"
     inkscape:window-width="1459"
     inkscape:window-height="1008"
     inkscape:window-x="546"
     inkscape:window-y="32"
     inkscape:window-maximized="1"
     inkscape:current-layer="svg2" />
  <!-- Block -->
  <path
     d="m376 0c0 1.08 0 2.16 0 3.3 0 38.76-31.42 70.17-70.17 70.17-38.76 0-70.17-31.42-70.17-70.17l0 0c0-1.14 0-2.22 0-3.3L0 0l0 612 612 0 0-612z"
     fill="#654ff0"
     id="path1"
     style="fill:#000000;fill-opacity:1" />
  <!-- Letters -->
  <path
     d="m142.16 329.81 40.56 0 27.69 147.47 0.5 0 33.28-147.47 37.94 0 30.06 149.28 0.59 0 31.56-149.28 39.78 0-51.69 216.69-40.25 0-29.81-147.47-0.78 0-31.91 147.47-41 0zm287.69 0 63.94 0 63.5 216.69-41.84 0-13.81-48.22-72.84 0-10.66 48.22-40.75 0zm24.34 53.41-17.69 79.5 55.06 0-20.31-79.5z"
     fill="#fff"
     id="path2" />
</svg>
