<?xml version="1.0" encoding="UTF-8" standalone="no"?>
<svg
   width="1000"
   height="1000"
   enable-background="new 0 0 140.5 70.5"
   version="1.1"
   viewBox="0 0 1000 1000"
   xml:space="preserve"
   id="svg5"
   sodipodi:docname="xml.svg"
   inkscape:version="1.3 (0e150ed6c4, 2023-07-21)"
   xmlns:inkscape="http://www.inkscape.org/namespaces/inkscape"
   xmlns:sodipodi="http://sodipodi.sourceforge.net/DTD/sodipodi-0.dtd"
   xmlns="http://www.w3.org/2000/svg"
   xmlns:svg="http://www.w3.org/2000/svg"
   xmlns:rdf="http://www.w3.org/1999/02/22-rdf-syntax-ns#"
   xmlns:cc="http://creativecommons.org/ns#"
   xmlns:dc="http://purl.org/dc/elements/1.1/"><defs
     id="defs5" /><sodipodi:namedview
     id="namedview5"
     pagecolor="#ffffff"
     bordercolor="#000000"
     borderopacity="0.25"
     inkscape:showpageshadow="2"
     inkscape:pageopacity="0.0"
     inkscape:pagecheckerboard="0"
     inkscape:deskcolor="#d1d1d1"
     inkscape:zoom="0.44625337"
     inkscape:cx="536.69062"
     inkscape:cy="406.71962"
     inkscape:window-width="1459"
     inkscape:window-height="1008"
     inkscape:window-x="546"
     inkscape:window-y="32"
     inkscape:window-maximized="1"
     inkscape:current-layer="svg5" /><title
     id="title1">Extensible Markup Language (XML) logo</title><g
     clip-rule="evenodd"
     fill-rule="evenodd"
     id="g5"
     transform="matrix(9.3938775,0,0,9.3938775,4.3577943,262.31532)"
     style="fill:#000000;fill-opacity:1">&#10;&#10;&#10;&#10;<path
   d="m 20.3,35.3 c -0.999,0 -12.3,11 -13.4,12.3 -0.918,1.02 -1.42,2.9 -3,3.11 -1.68,0.226 -2.06,-0.427 -2.87,-1.69 -0.765,-1.2 -1.69,-3.33 -0.353,-4.2 1.29,-0.829 17.3,-15.5 17.8,-16.1 0.622,-0.631 -0.062,-2.2 -0.359,-4.57 -0.382,-3.04 -0.576,-5.83 -0.342,-8.84 0.239,-3.09 0.979,-6.9 1.78,-9.9 0.493,-1.83 0.208,-5.45 2.76,-5.56 0.521,0.123 4.45,2.84 3.39,6.42 -1.53,5.13 -3,10.9 -2.55,16.4 0.087,1.06 0.514,1.98 1.19,1.49 7.25,-5.18 18.6,-10.8 21.5,-11.8 1.4,-0.446 2.83,-0.794 4.28,-0.976 1.04,0.123 1.83,1.1 2.65,1.79 4.11,3.52 -3.87,16 -4.55,19.8 0.639,0 1.33,-0.968 2.55,-2.07 1.3,-1.18 3.32,-3.04 4.81,-4.48 2.28,-1.71 4.27,-3.28 7.16,-3.65 6.95,-0.882 4.87,9.12 3.3,12.7 0.897,0 3.09,-2.52 4.84,-4.18 0.883,-0.837 1.86,-1.72 2.75,-2.54 1.06,-0.974 1.55,-1.48 2.35,-1.09 0.536,0.154 2.86,1.56 2.99,3.71 0.109,1.74 -0.605,3.45 -0.955,5.12 -0.291,1.4 -0.219,5.95 1.67,5.96 0.745,-0.538 1.72,-0.769 2.61,-0.917 1.43,-0.242 1.36,0.222 2.54,0.662 1.85,0.687 0.181,3.31 -0.792,4.28 -1.31,1.3 -3.18,2.16 -5.05,2.13 -2.06,-0.035 -3.68,-1.3 -4.61,-3.08 -0.507,-0.977 -1.16,-4.58 -1.41,-5.65 -0.252,-1.05 -0.033,-2.31 -1.15,-1.24 -3.15,3.03 -6.4,5.85 -9.6,8.84 -3.53,3.29 -6.9,-1.23 -6.26,-4.92 0.631,-3.61 3.75,-8.02 4.31,-11.6 -1.49,0 -4,2.6 -4.95,3.67 -1.54,1.74 -3.25,3.67 -4.99,5.5 -1.75,1.84 -3.25,3.53 -5.01,5.36 -1.27,1.32 -2.72,3.2 -4.86,3.32 -1.05,-0.166 -2.73,-1.92 -3.02,-4.15 -0.236,-1.86 0.235,-3.91 0.948,-5.62 2.06,-4.95 7.71,-15.4 9.03,-20.6 -2.71,0.261 -14.2,5.57 -21.8,11.9 -2.2,1.81 -0.169,5.13 0.751,7.34 0.985,2.36 3.89,6.63 4.76,7.36 2.28,1.89 0.459,3.56 -1.8,3.44 -0.959,-0.679 -2.12,-1.41 -3.02,-2.31 -0.978,-0.976 -1.82,-2.09 -2.59,-3.23 -1.56,-2.31 -3.05,-4.98 -3.45,-7.78"
   fill="#005fad"
   id="path4"
   style="fill:#000000;fill-opacity:1" />&#10;<path
   d="m 102,5.68 c -0.646,-2.39 -3.64,1.26 -5.14,3.19 -4.15,5.34 -7.93,16.2 -8.54,18.2 -1.86,6.14 -2.58,13.7 1.44,19.1 2.34,3.15 6.46,3.39 10.5,2.23 2.08,-0.599 4.17,-2.09 4.88,-3.72 0.588,-1.35 0.893,-3.87 -2.08,-1.95 -1.15,0.744 -3.26,1.56 -7.04,1.5 -1.27,-0.021 -3.35,-1.84 -3.91,-3.72 -0.984,-3.06 -0.565,-7.15 -0.565,-7.15 0.86,-5.28 3.31,-11 5.46,-15.8 0.835,-1.85 3.38,-6.47 4.33,-7.94 0,0.001 1.22,-1.92 0.674,-3.96 z"
   fill="#005fad"
   id="path5"
   style="fill:#000000;fill-opacity:1" />&#10;</g><metadata
     id="metadata5"><rdf:RDF><cc:Work
         rdf:about=""><dc:title>Extensible Markup Language (XML) logo</dc:title></cc:Work></rdf:RDF></metadata></svg>
