<?xml version="1.0" encoding="UTF-8" standalone="no"?>
<svg
   viewBox="0 0 1000 999.99999"
   height="1000"
   width="1000"
   xml:space="preserve"
   version="1.1"
   id="svg2"
   inkscape:version="1.3.2 (091e20ef0f, 2023-11-25, custom)"
   sodipodi:docname="groovy.svg"
   xmlns:inkscape="http://www.inkscape.org/namespaces/inkscape"
   xmlns:sodipodi="http://sodipodi.sourceforge.net/DTD/sodipodi-0.dtd"
   xmlns="http://www.w3.org/2000/svg"
   xmlns:svg="http://www.w3.org/2000/svg"
   xmlns:rdf="http://www.w3.org/1999/02/22-rdf-syntax-ns#"
   xmlns:cc="http://creativecommons.org/ns#"
   xmlns:dc="http://purl.org/dc/elements/1.1/"><sodipodi:namedview
     pagecolor="#ffffff"
     bordercolor="#666666"
     borderopacity="1"
     objecttolerance="10"
     gridtolerance="10"
     guidetolerance="10"
     inkscape:pageopacity="0"
     inkscape:pageshadow="2"
     inkscape:window-width="2560"
     inkscape:window-height="1009"
     id="namedview3495"
     showgrid="false"
     inkscape:zoom="0.29631143"
     inkscape:cx="290.23518"
     inkscape:cy="487.6626"
     inkscape:window-x="0"
     inkscape:window-y="0"
     inkscape:window-maximized="1"
     inkscape:current-layer="g12"
     fit-margin-top="0"
     fit-margin-left="0"
     fit-margin-right="0"
     fit-margin-bottom="0"
     inkscape:showpageshadow="2"
     inkscape:pagecheckerboard="0"
     inkscape:deskcolor="#d1d1d1" /><metadata
     id="metadata8"><rdf:RDF><cc:Work
         rdf:about=""><dc:format>image/svg+xml</dc:format><dc:type
           rdf:resource="http://purl.org/dc/dcmitype/StillImage" /></cc:Work></rdf:RDF></metadata><defs
     id="defs6" /><g
     transform="matrix(1.25,0,0,-1.25,0.10206869,221.89279)"
     id="g10"><g
       transform="scale(0.1)"
       id="g12"><path
         id="path300"
         style="fill:#000000;fill-opacity:1;fill-rule:nonzero;stroke:none;stroke-width:3.7091"
         d="m 4931.3883,1564.4109 c 791.8178,0 330.3267,-1978.58355 48.7448,-2575.1903 -241.1307,-510.7624 -783.9738,-1247.4469 -1427.3284,-1247.4469 -771.8933,0 -748.9352,864.545 -441.6751,1515.37185 166.3382,352.36146 421.9825,747.34781 774.1896,1037.7346 -90.1527,-303.10619 214.5925,-510.13913 91.3413,-771.29856 -84.1812,-178.34526 -258.4185,-373.20012 -348.9541,-565.02299 -146.4278,-310.1172 -90.4805,-860.5265 263.2698,-860.5265 316.6622,0 598.0389,392.2663 713.391,636.6195 236.3212,500.70773 827.2126,2636.7995 166.7219,2636.7995 -760.6878,0 -2071.4746,-1853.68829 -2345.964,-2435.1391 -489.9436,-1037.8708 -134.7987,-2316.2776 981.5253,-2316.2776 754.2784,0 1374.6883,725.1564 1674.3629,1360.0298 178.5154,378.1389 275.7198,754.3847 313.9973,1109.15497 l 146.4278,26.7918 c 32.347,-976.58507 1065.4881,-2593.66087 625.6848,-3525.26777 -562.8635,-1192.3734 -2245.877,-1181.6971 -3206.8498,-1604.8694 -201.9924,472.495 -475.6351,911.7967 -860.9391,1247.0682 857.1948,288.3439 2963.6405,772.5163 3421.6608,1742.8236 192.4944,407.6919 61.4409,1083.6345 -160.9548,1312.724 -37.8404,-144.0983 -90.2077,-290.9832 -159.7111,-438.1935 -392.1921,-830.7695 -1231.8955,-1475.0476 -2097.5766,-1475.0476 -1205.2606,0 -1716.2213,866.0743 -1148.9996,2067.8382 340.427,721.09687 2078.8007,3121.3242 2977.6353,3121.3242"
         inkscape:connector-curvature="0" /></g></g></svg>
